<?xml version="1.0" standalone="no"?>
<!DOCTYPE svg PUBLIC "-//W3C//DTD SVG 20010904//EN"
 "http://www.w3.org/TR/2001/REC-SVG-20010904/DTD/svg10.dtd">
<svg version="1.0" xmlns="http://www.w3.org/2000/svg"
 width="670.000000pt" height="754.000000pt" viewBox="0 0 670.000000 754.000000"
 preserveAspectRatio="xMidYMid meet">

<g transform="translate(0.000000,754.000000) scale(0.100000,-0.100000)"
fill="#000000" stroke="none">
<path d="M2435 6746 c-55 -17 -118 -51 -136 -72 -7 -9 -31 -28 -52 -41 -21
-13 -41 -31 -44 -40 -4 -9 -24 -34 -45 -56 -58 -60 -133 -227 -167 -370 -14
-59 -38 -351 -36 -432 8 -236 29 -414 69 -588 24 -101 24 -101 -46 -140 -68
-38 -183 -134 -219 -182 -12 -16 -35 -43 -50 -60 -33 -35 -96 -146 -106 -183
-3 -15 -14 -40 -23 -57 -16 -28 -32 -86 -60 -215 -14 -63 -8 -318 9 -416 12
-73 79 -263 112 -319 22 -37 102 -143 131 -173 7 -7 33 -30 58 -52 l45 -38
-20 -22 c-11 -12 -32 -28 -47 -36 -40 -21 -269 -253 -298 -302 -14 -23 -44
-73 -67 -110 -51 -80 -59 -110 -42 -156 10 -27 10 -41 1 -60 -6 -14 -14 -55
-18 -90 -6 -55 -3 -74 16 -121 27 -67 78 -107 184 -145 l71 -26 5 -84 c6 -103
28 -149 100 -212 54 -48 233 -146 278 -153 31 -4 190 -59 198 -68 4 -3 -3 -26
-15 -49 -11 -24 -24 -65 -27 -90 -13 -96 15 -152 103 -204 40 -23 63 -28 162
-35 250 -18 536 -6 570 25 23 21 40 20 64 -1 17 -16 40 -18 191 -17 216 2 400
19 446 42 19 9 48 36 64 59 25 37 30 52 30 111 1 52 -3 74 -19 96 -35 50 -44
71 -36 79 5 5 41 17 80 27 39 11 94 31 122 45 28 14 56 25 62 25 23 0 112 53
149 87 41 40 53 81 49 164 -3 64 2 70 73 89 70 19 115 68 146 157 21 64 23 77
13 120 -7 26 -15 77 -18 113 -4 36 -15 91 -26 123 -23 67 -108 224 -148 271
-15 17 -38 47 -53 66 -26 36 -40 50 -142 144 l-58 55 96 92 c53 50 96 96 96
101 0 5 22 32 49 60 35 35 66 85 105 164 97 198 115 304 97 556 -14 188 -42
308 -87 369 -13 18 -24 39 -24 47 0 32 -62 112 -172 223 -65 65 -135 130 -157
145 -50 32 -55 46 -35 92 32 74 67 180 110 337 25 88 51 180 59 205 37 117 63
490 46 652 -13 119 -24 162 -63 243 -54 111 -71 129 -188 187 -54 27 -79 33
-146 36 -60 3 -89 0 -112 -12 -17 -9 -40 -16 -50 -16 -26 0 -109 -47 -165 -95
-46 -38 -127 -137 -127 -154 0 -4 -15 -37 -34 -72 -101 -192 -162 -508 -172
-887 -2 -96 -6 -178 -10 -183 -6 -11 -51 -12 -57 -1 -3 4 0 96 5 205 9 169 8
230 -7 405 -9 114 -21 216 -25 227 -4 11 -13 54 -20 95 -7 45 -32 121 -62 191
-40 93 -61 128 -107 176 -75 79 -115 107 -183 127 -66 19 -186 20 -243 2z
m222 -97 c123 -45 218 -190 268 -409 43 -186 45 -199 54 -345 11 -160 8 -293
-10 -483 -12 -128 -12 -133 8 -160 18 -25 28 -28 109 -35 103 -9 129 -4 144
23 6 11 13 110 16 222 6 239 40 563 64 607 5 11 10 33 10 48 0 16 7 38 15 49
8 10 15 27 15 37 0 10 8 37 18 60 10 23 27 62 37 87 10 25 26 54 36 65 9 11
24 34 33 52 16 33 96 105 157 141 41 25 185 45 228 32 123 -37 175 -101 217
-267 27 -107 32 -225 19 -433 -6 -101 -55 -365 -72 -393 -3 -6 -10 -27 -14
-46 -4 -20 -14 -62 -23 -94 -9 -32 -16 -68 -16 -81 0 -12 -11 -45 -25 -72 -14
-27 -25 -55 -25 -63 0 -7 -13 -40 -30 -73 -43 -85 -40 -115 16 -167 25 -23 58
-48 72 -55 43 -23 181 -164 222 -227 121 -188 154 -315 153 -594 0 -108 -5
-168 -18 -215 -16 -60 -93 -221 -136 -282 -11 -14 -19 -30 -19 -35 0 -12 -259
-263 -272 -263 -6 0 -25 -11 -42 -24 -17 -13 -41 -26 -54 -30 -13 -5 -57 -23
-98 -42 -41 -19 -84 -34 -95 -34 -11 0 -29 -5 -41 -11 -11 -6 -52 -15 -92 -20
-39 -5 -106 -13 -148 -18 -42 -5 -82 -12 -87 -15 -16 -11 -336 -7 -450 4 -58
6 -131 17 -161 25 -30 7 -80 16 -110 20 -30 3 -71 12 -90 19 -19 7 -51 19 -70
26 -316 113 -447 197 -579 370 -34 44 -61 85 -61 92 0 7 -8 27 -18 43 -30 50
-87 227 -81 250 2 6 -3 34 -9 63 -16 72 -15 216 2 282 8 30 19 81 25 114 10
55 74 199 123 277 58 92 189 215 269 254 141 67 149 83 104 206 -22 62 -31
102 -64 304 -15 91 -22 428 -10 530 24 223 51 313 141 466 112 192 285 276
445 218z m-628 -3430 c20 -6 86 -35 146 -64 61 -29 130 -56 155 -59 25 -4 81
-18 125 -31 44 -13 139 -32 210 -42 241 -33 794 -15 965 33 86 24 222 73 247
89 12 8 33 15 46 15 41 0 165 -114 280 -260 7 -8 31 -37 54 -65 46 -56 93
-153 93 -195 0 -57 -13 -85 -52 -117 -22 -18 -49 -33 -59 -33 -27 0 -56 36
-63 81 -5 29 -13 42 -29 48 -51 20 -56 -15 -33 -226 8 -70 17 -181 20 -245 5
-115 5 -118 -21 -148 -45 -54 -236 -136 -413 -177 -58 -14 -143 -35 -190 -48
-119 -33 -583 -51 -760 -30 -63 7 -155 18 -205 24 -284 35 -572 137 -672 240
-10 9 -34 30 -54 44 -20 15 -44 42 -54 61 -17 32 -18 43 -7 148 7 62 16 136
21 163 21 106 9 263 -21 281 -6 4 -29 -14 -52 -40 -54 -60 -78 -60 -148 -3
-67 55 -71 80 -27 168 24 47 62 93 145 174 115 114 202 191 238 212 26 15 69
16 115 2z m-474 -653 c11 -7 36 -18 56 -25 60 -19 72 -40 67 -116 -5 -82 -14
-92 -67 -76 -102 30 -163 141 -115 209 18 25 32 27 59 8z m2830 -166 c13 -57
-53 -130 -117 -130 -34 0 -50 28 -46 78 3 35 6 38 67 63 36 15 70 25 77 22 7
-2 16 -17 19 -33z m-715 -726 c62 -71 64 -133 6 -177 -30 -23 -46 -27 -186
-36 -85 -6 -196 -8 -247 -5 -114 8 -133 24 -133 108 0 79 7 84 140 96 109 9
195 21 285 40 82 16 101 13 135 -26z m-1170 6 c34 -9 365 -38 444 -39 60 -1
68 -15 57 -95 -11 -76 -27 -101 -74 -110 -47 -10 -444 -7 -506 3 -108 17 -156
119 -96 202 14 19 33 39 42 46 17 13 69 10 133 -7z"/>
<path d="M2241 4004 c-77 -32 -56 -147 29 -160 48 -8 80 18 87 71 9 72 -49
117 -116 89z"/>
<path d="M3625 3915 c-19 -18 -25 -35 -25 -68 0 -37 5 -47 31 -66 58 -43 129
1 129 80 0 75 -82 108 -135 54z"/>
<path d="M2869 3607 c-38 -20 -35 -44 11 -87 l42 -39 -49 -23 c-52 -25 -63
-46 -38 -72 21 -21 63 -20 146 1 l67 17 65 -32 c74 -37 87 -38 117 -14 27 22
19 45 -26 71 -41 24 -43 37 -9 53 26 12 41 47 31 73 -8 21 -64 19 -101 -3 -60
-37 -81 -36 -138 6 -78 58 -89 63 -118 49z"/>
</g>
</svg>
